<svg xmlns="http://www.w3.org/2000/svg" viewBox="0 0 200 200" width="200" height="200">
  <defs>
    <linearGradient id="goldGrad" x1="0%" y1="0%" x2="100%" y2="100%">
      <stop offset="0%" stop-color="#e8c97a"/>
      <stop offset="100%" stop-color="#c9a84c"/>
    </linearGradient>
    <linearGradient id="brainGrad" x1="0%" y1="0%" x2="100%" y2="100%">
      <stop offset="0%" stop-color="#e8c97a" stop-opacity="0.9"/>
      <stop offset="100%" stop-color="#c9a84c" stop-opacity="0.7"/>
    </linearGradient>
  </defs>

  <!-- Background circle - WHITE -->
  <circle cx="100" cy="100" r="95" fill="#0b1120" stroke="#ffffff" stroke-width="1.5" opacity="0.9"/>

  <!-- Chat bubble - GOLD -->
  <path d="M 60 55 Q 60 38 78 38 L 122 38 Q 140 38 140 55 L 140 100 Q 140 117 122 117 L 92 117 L 76 132 L 79 117 Q 60 117 60 100 Z"
        fill="none" stroke="url(#goldGrad)" stroke-width="2" opacity="0.85"/>

  <!-- Brain/neural pattern - GOLD -->
  <path d="M 78 55 Q 73 64 78 73 Q 73 82 78 91" fill="none" stroke="url(#brainGrad)" stroke-width="1.5" stroke-linecap="round" opacity="0.6"/>
  <path d="M 85 50 Q 80 60 85 68 Q 80 77 85 85 Q 82 92 85 100" fill="none" stroke="url(#brainGrad)" stroke-width="1.5" stroke-linecap="round" opacity="0.7"/>

  <path d="M 122 55 Q 127 64 122 73 Q 127 82 122 91" fill="none" stroke="url(#brainGrad)" stroke-width="1.5" stroke-linecap="round" opacity="0.6"/>
  <path d="M 115 50 Q 120 60 115 68 Q 120 77 115 85 Q 118 92 115 100" fill="none" stroke="url(#brainGrad)" stroke-width="1.5" stroke-linecap="round" opacity="0.7"/>

  <path d="M 93 46 Q 100 56 107 46" fill="none" stroke="url(#brainGrad)" stroke-width="1.5" stroke-linecap="round" opacity="0.5"/>
  <path d="M 93 105 Q 100 95 107 105" fill="none" stroke="url(#brainGrad)" stroke-width="1.5" stroke-linecap="round" opacity="0.5"/>

  <circle cx="100" cy="58" r="3.5" fill="url(#goldGrad)" opacity="0.9"/>
  <circle cx="88" cy="72" r="3" fill="url(#goldGrad)" opacity="0.7"/>
  <circle cx="112" cy="72" r="3" fill="url(#goldGrad)" opacity="0.7"/>
  <circle cx="100" cy="86" r="3.5" fill="url(#goldGrad)" opacity="0.9"/>
  <circle cx="85" cy="60" r="2" fill="#c9a84c" opacity="0.5"/>
  <circle cx="115" cy="60" r="2" fill="#c9a84c" opacity="0.5"/>
  <circle cx="85" cy="90" r="2" fill="#c9a84c" opacity="0.5"/>
  <circle cx="115" cy="90" r="2" fill="#c9a84c" opacity="0.5"/>

  <line x1="100" y1="58" x2="88" y2="72" stroke="#e8c97a" stroke-width="0.8" opacity="0.4"/>
  <line x1="100" y1="58" x2="112" y2="72" stroke="#e8c97a" stroke-width="0.8" opacity="0.4"/>
  <line x1="88" y1="72" x2="100" y2="86" stroke="#e8c97a" stroke-width="0.8" opacity="0.4"/>
  <line x1="112" y1="72" x2="100" y2="86" stroke="#e8c97a" stroke-width="0.8" opacity="0.4"/>
  <line x1="85" y1="60" x2="100" y2="58" stroke="#e8c97a" stroke-width="0.5" opacity="0.3"/>
  <line x1="115" y1="60" x2="100" y2="58" stroke="#e8c97a" stroke-width="0.5" opacity="0.3"/>
  <line x1="85" y1="90" x2="100" y2="86" stroke="#e8c97a" stroke-width="0.5" opacity="0.3"/>
  <line x1="115" y1="90" x2="100" y2="86" stroke="#e8c97a" stroke-width="0.5" opacity="0.3"/>
  <line x1="88" y1="72" x2="112" y2="72" stroke="#e8c97a" stroke-width="0.5" opacity="0.25" stroke-dasharray="2,2"/>

  <circle cx="52" cy="48" r="2" fill="#c9a84c" opacity="0.35"/>
  <circle cx="148" cy="52" r="2" fill="#c9a84c" opacity="0.35"/>
  <circle cx="50" cy="105" r="1.5" fill="#c9a84c" opacity="0.25"/>
  <circle cx="148" cy="108" r="1.5" fill="#c9a84c" opacity="0.25"/>

  <circle cx="100" cy="72" r="20" fill="none" stroke="#c9a84c" stroke-width="0.5" opacity="0.15"/>
  <circle cx="100" cy="72" r="32" fill="none" stroke="#c9a84c" stroke-width="0.5" opacity="0.08"/>
</svg>
